<svg width="134" height="134" viewBox="0 0 134 134" fill="none" xmlns="http://www.w3.org/2000/svg">
<circle cx="67" cy="67" r="66.5" fill="#990F2F" stroke="#990F2F"/>
<circle cx="67" cy="67" r="63" stroke="url(#paint0_radial_1_142)" stroke-width="2"/>
<path d="M85.8855 116.616C86.1181 116.513 86.3731 116.4 86.6463 116.272C88.2674 115.516 90.5757 114.319 93.2836 112.575C98.6999 109.087 105.708 103.414 112.016 94.6914C118.156 86.1995 119.272 75.0105 118.77 65.752C118.521 61.151 117.875 57.0919 117.292 54.1836C117.161 53.5288 117.032 52.9332 116.913 52.4033L85.8641 88.0732L82.7781 91.7422L81.7366 88.0732L83.4669 86.1494L118.399 46.0186L119.206 48.7451L117.704 49.1553C119.207 48.7448 119.207 48.7461 119.207 48.7461V48.748C119.207 48.748 119.209 48.7509 119.209 48.7529C119.211 48.7575 119.212 48.7645 119.214 48.7725C119.219 48.7884 119.226 48.8115 119.235 48.8408C119.252 48.8998 119.275 48.9856 119.306 49.0967C119.367 49.3198 119.455 49.6458 119.561 50.0645C119.773 50.9016 120.059 52.1112 120.361 53.6162C120.963 56.6243 121.631 60.8254 121.889 65.5967C122.403 75.0826 121.316 87.09 114.582 96.4023C108.015 105.483 100.705 111.408 95.0237 115.066C92.1831 116.896 89.748 118.16 88.0122 118.971C87.1442 119.376 86.4503 119.668 85.9679 119.86C85.7266 119.957 85.5377 120.029 85.4065 120.077C85.3412 120.101 85.2902 120.12 85.2539 120.133C85.2357 120.139 85.2208 120.145 85.2102 120.148C85.2049 120.15 85.2003 120.151 85.197 120.152L85.1929 120.154H85.1909L84.665 118.742L85.1898 120.155L83.4263 120.759L66.6042 21.9844L67.6769 10L68.1976 12.5L69.6879 21.5L85.8855 116.616Z" fill="url(#paint1_radial_1_142)"/>
<path d="M49.1145 116.858C48.8819 116.755 48.6269 116.642 48.3537 116.515C46.7326 115.758 44.4243 114.561 41.7164 112.817C36.3001 109.329 29.2921 103.656 22.9843 94.9336C16.8436 86.4417 15.7281 75.2527 16.23 65.9941C16.4795 61.3932 17.125 57.3341 17.7078 54.4258C17.839 53.771 17.9678 53.1753 18.0872 52.6455L49.1358 88.3154L52.5752 92.4844L53.096 88.3154L51.533 86.3916L16.6013 46.2607L15.7937 48.9873L17.2959 49.3975C15.7933 48.987 15.7927 48.9883 15.7927 48.9883V48.9902C15.7927 48.9902 15.7913 48.9931 15.7907 48.9951C15.7893 48.9997 15.7879 49.0067 15.7856 49.0146C15.7809 49.0306 15.7736 49.0537 15.7652 49.083C15.7484 49.142 15.7247 49.2278 15.694 49.3389C15.6326 49.562 15.5446 49.888 15.4388 50.3066C15.2271 51.1437 14.941 52.3534 14.6394 53.8584C14.0365 56.8665 13.3694 61.0676 13.1107 65.8389C12.5965 75.3248 13.6842 87.3322 20.4183 96.6445C26.9852 105.726 34.2946 111.65 39.9762 115.309C42.8169 117.138 45.252 118.402 46.9878 119.213C47.8558 119.618 48.5497 119.91 49.0321 120.103C49.2733 120.199 49.4623 120.271 49.5935 120.319C49.6588 120.343 49.7098 120.362 49.7461 120.375C49.7643 120.381 49.7791 120.387 49.7898 120.391C49.795 120.392 49.7996 120.393 49.803 120.395L49.8071 120.396H49.8091L50.3349 118.984L49.8101 120.397L51.5737 121.001L68.3958 22.2266L67.6769 10L67.1561 12.5L65.3121 21.7422L49.1145 116.858Z" fill="url(#paint2_radial_1_142)"/>
<defs>
<radialGradient id="paint0_radial_1_142" cx="0" cy="0" r="1" gradientUnits="userSpaceOnUse" gradientTransform="translate(67 11) rotate(90) scale(120)">
<stop stop-color="#BDAF68"/>
<stop offset="0.442308" stop-color="#FCFBCC"/>
<stop offset="0.822115" stop-color="#BDAF68"/>
</radialGradient>
<radialGradient id="paint1_radial_1_142" cx="0" cy="0" r="1" gradientUnits="userSpaceOnUse" gradientTransform="translate(112.09 55.4007) rotate(84.9561) scale(72.623 37.0902)">
<stop stop-color="#BDAF68"/>
<stop offset="0.317308" stop-color="#BDAF68"/>
<stop offset="0.466346" stop-color="#BDAF68"/>
<stop offset="0.736564" stop-color="#FFFECD"/>
<stop offset="1" stop-color="#BDAF68"/>
</radialGradient>
<radialGradient id="paint2_radial_1_142" cx="0" cy="0" r="1" gradientUnits="userSpaceOnUse" gradientTransform="translate(22.9103 55.5) rotate(95.033) scale(72.7806 37.0909)">
<stop stop-color="#BDAF68"/>
<stop offset="0.317308" stop-color="#BDAF68"/>
<stop offset="0.466346" stop-color="#BDAF68"/>
<stop offset="0.736564" stop-color="#FFFECD"/>
<stop offset="1" stop-color="#BDAF68"/>
</radialGradient>
</defs>
</svg>
